# xmcd
#
# Track frame offsets:
#	150
#	18350
#	38243
#	51247
#	69760
#	85578
#	97893
#	116270
#	127182
#	142946
#	155312
#	170897
#	183635
#	200287
# Disc length: 2916 seconds
# Revision: 2
# Processed by: cddbd v1.5.2PL0 Copyright (c) Steve Scherf et al.
#
# Submitted via: libkcddb 0.31
#
DISCID=b30b620e
DTITLE=Kim Carson and The Casualties - Live @ Tipitina's
DYEAR=1900
DGENRE=Country
TTITLE0=Whiskey River
TTITLE1=Excuse Me While I Break My Own Heart
TTITLE2=I-10 Westbound Blues
TTITLE3=Ring Of Fire
TTITLE4=Burned By An Old Flame
TTITLE5=Honky Tonk Girl
TTITLE6=Help Me Make It Through The Night
TTITLE7=Just Because You're Gone
TTITLE8=Not a Big Deal
TTITLE9=Thanks A Lot
TTITLE10=Going Back To Louisiana
TTITLE11=Wake Up And Smell The Whiskey
TTITLE12=I's Instrumental
TTITLE13=I Gotta Get Drunk
EXTD=ID3G: 2
EXTT0=
EXTT1=
EXTT2=
EXTT3=
EXTT4=
EXTT5=
EXTT6=
EXTT7=
EXTT8=
EXTT9=
EXTT10=
EXTT11=
EXTT12=
EXTT13=
PLAYORDER=
